
<svg xmlns:xlink="http://www.w3.org/1999/xlink"  width="15" height="15" viewBox="0 0 15 15" fill="none" xmlns="http://www.w3.org/2000/svg">
<path d="M5.49902 10.812C5.49902 11.6753 4.65902 12.375 3.62402 12.375C2.58902 12.375 1.74902 11.6753 1.74902 10.812C1.74902 9.9495 2.58902 9.24975 3.62402 9.24975C4.65902 9.24975 5.49902 9.9495 5.49902 10.812ZM5.49902 10.812V4.68C5.49902 4.128 5.86127 3.64125 6.39002 3.48225L7.50002 3M11.7488 9.687C11.7488 10.5503 10.9095 11.25 9.87377 11.25C8.83877 11.25 7.99877 10.5503 7.99877 9.687C7.99877 8.8245 8.83877 8.12475 9.87377 8.12475C10.9095 8.12475 11.7488 8.8245 11.7488 9.687ZM11.7488 9.687L11.7503 6.4995" stroke="white" stroke-width="1.125" stroke-linecap="round" stroke-linejoin="round"/>
<path d="M9.55492 2.58376L10.3942 2.16376C10.457 2.13246 10.5081 2.08168 10.5397 2.01901L10.9597 1.17976C11.0789 0.939756 11.4209 0.939756 11.5409 1.17976L11.9609 2.01901C11.9917 2.08201 12.0434 2.13301 12.1057 2.16451L12.9457 2.58451C13.1849 2.70451 13.1849 3.04576 12.9457 3.16576L12.1057 3.58576C12.0427 3.61725 11.9917 3.6683 11.9602 3.73126L11.5402 4.56976C11.513 4.62356 11.4715 4.66877 11.4202 4.70036C11.3689 4.73194 11.3098 4.74867 11.2495 4.74867C11.1893 4.74867 11.1302 4.73194 11.0789 4.70036C11.0276 4.66877 10.9861 4.62356 10.9589 4.56976L10.5389 3.73126C10.5076 3.66842 10.4568 3.61738 10.3942 3.58576L9.55417 3.16576C9.50018 3.13869 9.45477 3.09714 9.42304 3.04575C9.39132 2.99436 9.37451 2.93515 9.37451 2.87476C9.37451 2.81436 9.39132 2.75515 9.42304 2.70376C9.45477 2.65237 9.50093 2.61082 9.55492 2.58376Z" fill="white"/>
</svg>
