<svg xmlns:xlink="http://www.w3.org/1999/xlink"  width="67" height="67" viewBox="0 0 67 67" fill="none" xmlns="http://www.w3.org/2000/svg" class="mb-2" style="transform: translateY(-0.408864px);"><path fill-rule="evenodd" clip-rule="evenodd" d="M0.999999 34C0.999998 51.6731 15.3269 66 33 66C50.6731 66 65 51.6731 65 34C65 16.3269 50.6731 2 33 2C15.3269 2 0.999999 16.3269 0.999999 34ZM21.4529 10.5973C23.1347 10.0574 24.8641 9.50228 26.9844 8.60052C34.2533 5.50914 40.3526 3.92167 43.7782 6.09399C45.5063 7.18995 46.4051 8.77488 47.6117 10.9024C48.7969 12.9922 50.279 15.6057 53.1358 18.7937C54.2737 20.0636 55.3886 21.2195 56.4371 22.3064C60.7007 26.7263 63.8645 30.0061 62.9949 35.1697C62.2965 39.316 59.9794 41.4559 57.6038 43.65C55.4317 45.656 53.2107 47.7073 52.1332 51.3786C49.8774 59.0653 45.5327 63.9113 40.3526 64.7468C35.1725 65.5823 28.6555 67.1698 21.8043 62.1567C18.1949 59.5157 17.229 56.3182 16.1947 52.894C15.2657 49.8184 14.2814 46.56 11.2768 43.3577C6.16188 37.9062 2.25334 21.6345 11.2768 15.0339C15.736 12.4327 18.5223 11.5382 21.4529 10.5973Z" fill="#F9FAFB" stroke="#E5E7EB" class="fill-gray-alpha-50 dark:fill-gray-alpha-300"></path><path d="M35.5 65.4213C32.4387 65.4213 27.0039 63.1026 29.556 48.4697C32.143 33.6367 34.6582 32.5772 36.6991 17.7441C38.3318 5.87764 33.1635 0.879763 25 2.99892" stroke="#E5E7EB"></path><path d="M35.5 65.4213C32.4387 65.4213 27.0039 63.1026 29.556 48.4697C32.143 33.6367 34.6582 32.5772 36.6991 17.7441C38.3318 5.87764 33.1635 0.879763 25 2.99892" stroke="#E5E7EB"></path><path d="M13.9366 60.1985C13.3549 58.5117 13.0386 52.9228 20.1376 45.3445C29.0114 35.8717 32.5 35.9576 43.4911 23.7479C51.5691 14.7744 51.1723 9.05213 50.0993 7.46233" stroke="#E5E7EB"></path><path d="M1.26819 34.1609C2.4003 35.5336 7.69514 38.3852 17.7661 36.3925C30.3548 33.9016 44.434 32.3069 49.694 33.0286C62.352 34.7653 63.4138 43.3034 63.4138 43.3034" stroke="#E5E7EB"></path><path d="M14 8.49185C10.815 13.8502 11.6451 18.0594 19.9943 24.0831C30.4307 31.6127 42.2985 40.8307 45.5024 45.1029C50.6684 51.9917 51.5 59.9283 51.5 59.9283" stroke="#E5E7EB"></path><rect x="1.26099" y="2" width="63.7129" height="63.7129" rx="31.8565" stroke="#D1D5DB" stroke-width="1.5"></rect><g><rect x="45" y="2" width="20" height="20" rx="10" fill="white"></rect><path d="M55 7C55.5523 7 56 7.44772 56 8V12C56 12.5523 55.5523 13 55 13C54.4477 13 54 12.5523 54 12V8C54 7.44772 54.4477 7 55 7Z" fill="black"></path><path d="M55 15C54.4477 15 54 15.4477 54 16C54 16.5523 54.4477 17 55 17H55.01C55.5623 17 56.01 16.5523 56.01 16C56.01 15.4477 55.5623 15 55.01 15H55Z" fill="black"></path><path fill-rule="evenodd" clip-rule="evenodd" d="M44 12C44 5.92487 48.9249 1 55 1C61.0751 1 66 5.92487 66 12C66 18.0751 61.0751 23 55 23C48.9249 23 44 18.0751 44 12ZM55 3C50.0294 3 46 7.02944 46 12C46 16.9706 50.0294 21 55 21C59.9706 21 64 16.9706 64 12C64 7.02944 59.9706 3 55 3Z" fill="black"></path></g></svg>